<?xml version="1.0" encoding="UTF-8"?>
<svg id="Layer_2" data-name="Layer 2" xmlns="http://www.w3.org/2000/svg" viewBox="0 0 126.61 157.96">
  <defs>
    <style>
      .cls-1 {
        fill: #f27076;
      }

      .cls-2 {
        fill: #73c9dc;
      }
    </style>
  </defs>
  <g id="Layer_1-2" data-name="Layer 1">
    <g>
      <path class="cls-1" d="M71.33,65.12h20.71l18.38-.39.78.65v14.5l-.78.65-18.38-.39h-20.71v23.69h15.41l-9.45-3.88c4.4-7.51,6.34-12.04,9.06-18.64l1.17-.65,16.05,5.83.39,1.42c-3.5,6.21-7.12,11.65-10.49,15.92h9.97l17.09-.39.78.65v14.63l-.78.65-17.09-.39H22.4l-16.96.39-.91-.78v-14.37l.78-.78,17.09.39h8.29c-1.68-4.53-4.27-10.75-7.51-16.05l.39-1.17,13.59-5.05,1.42.52c3.24,4.4,6.34,10.49,8.67,15.66l-.39,1.29-12.04,4.79h18.12v-23.69h-19.81l-18.25.39-.91-.78v-14.24l.78-.78,18.38.39h19.81v-9.06h-4.14l-14.37.39-.91-.78v-5.96c-5.44,3.75-11.13,7.38-17.22,10.75-1.04.52-1.81.78-2.46.78-.78,0-1.42-.39-2.2-1.17L0,48.42C24.34,36.64,41.69,22.14,54.11.39l1.42-.39,18.38,4.92.39,1.29c-.65,1.04-1.29,2.07-2.07,3.11,14.24,14.76,31.59,27.06,54.37,34.56l-11.26,13.07c-1.42,1.68-2.59,2.46-3.75,2.46-.65,0-1.29-.26-2.07-.65-5.96-3.24-11.78-6.6-17.61-10.23v7.25l-.78.65-14.5-.39h-5.31v9.06ZM81.17,41.04c-6.99-5.31-13.2-11.26-19.03-17.86-5.18,6.47-11.13,12.56-17.48,17.86l4.14.13h27.83l4.53-.13Z"/>
      <g>
        <path class="cls-2" d="M21.17,138.13c1.65,1.24,3.35,2.68,4.87,4.05,2.6-2.27,5.7-5.49,7.23-7.23h-17.22l-6.07.12-.29-.33v-5.45l.33-.29,5.91.12h19.7l4.42-.21,2.77,3.8c.29.37.41.66.41.95s-.12.58-.5.95c-3.55,3.8-7.31,7.35-12.39,11.69,1.07,1.07,2.11,2.23,3.14,3.43l-.08.41-4.67,4.05h-.37c-3.84-4.96-8.05-9.33-11.81-12.1v-.41l4.17-3.55h.45Z"/>
        <path class="cls-2" d="M65.29,147.34l.21,10.62h-6.98l.21-10.16v-2.06c-2.97,1.94-6.24,3.8-9.87,5.66-.37.21-.62.29-.83.29-.25,0-.41-.12-.74-.45l-4.05-4.01c8.76-4.01,14.71-7.56,20.12-12.43l-9.13.04-5.62.12-.29-.33v-5.33l.37-.25,5.58.12h4.67v-6.32l.33-.29h5.91l.33.33v6.28h2.64l3.43-.21,2.35,2.97c.21.25.29.41.29.62,0,.25-.21.5-.54.91-2.81,2.85-5.58,5.33-8.38,7.56v6.32ZM79,145.61l-3.63,4.34-.41-.04c-2.48-2.19-5.12-4.13-8.01-5.91v-.37l3.51-3.88.37-.08c3.22,1.61,5.62,3.22,8.18,5.54v.41Z"/>
        <path class="cls-2" d="M110.43,143.87h-18.46l-6.15.12-.29-.33v-5.91l.37-.25,5.91.12h18.42l6.36-.12.33.29v5.87l-.29.33-6.2-.12Z"/>
      </g>
    </g>
  </g>
</svg>